<svg width="21" height="20" viewBox="0 0 21 20" fill="none" xmlns="http://www.w3.org/2000/svg">
<g id="IONIcon/C/calendar/sharp">
<path id="Vector" d="M12.5234 8.125H10.9609C10.8746 8.125 10.8047 8.19496 10.8047 8.28125V9.84375C10.8047 9.93004 10.8746 10 10.9609 10H12.5234C12.6097 10 12.6797 9.93004 12.6797 9.84375V8.28125C12.6797 8.19496 12.6097 8.125 12.5234 8.125Z" fill="white"/>
<path id="Vector_2" d="M15.6484 8.125H14.0859C13.9996 8.125 13.9297 8.19496 13.9297 8.28125V9.84375C13.9297 9.93004 13.9996 10 14.0859 10H15.6484C15.7347 10 15.8047 9.93004 15.8047 9.84375V8.28125C15.8047 8.19496 15.7347 8.125 15.6484 8.125Z" fill="white"/>
<path id="Vector_3" d="M12.5234 11.248H10.9609C10.8746 11.248 10.8047 11.318 10.8047 11.4043V12.9668C10.8047 13.0531 10.8746 13.123 10.9609 13.123H12.5234C12.6097 13.123 12.6797 13.0531 12.6797 12.9668V11.4043C12.6797 11.318 12.6097 11.248 12.5234 11.248Z" fill="white"/>
<path id="Vector_4" d="M15.6484 11.248H14.0859C13.9996 11.248 13.9297 11.318 13.9297 11.4043V12.9668C13.9297 13.0531 13.9996 13.123 14.0859 13.123H15.6484C15.7347 13.123 15.8047 13.0531 15.8047 12.9668V11.4043C15.8047 11.318 15.7347 11.248 15.6484 11.248Z" fill="white"/>
<path id="Vector_5" d="M6.27344 11.248H4.71094C4.62464 11.248 4.55469 11.318 4.55469 11.4043V12.9668C4.55469 13.0531 4.62464 13.123 4.71094 13.123H6.27344C6.35973 13.123 6.42969 13.0531 6.42969 12.9668V11.4043C6.42969 11.318 6.35973 11.248 6.27344 11.248Z" fill="white"/>
<path id="Vector_6" d="M9.39844 11.248H7.83594C7.74964 11.248 7.67969 11.318 7.67969 11.4043V12.9668C7.67969 13.0531 7.74964 13.123 7.83594 13.123H9.39844C9.48473 13.123 9.55469 13.0531 9.55469 12.9668V11.4043C9.55469 11.318 9.48473 11.248 9.39844 11.248Z" fill="white"/>
<path id="Vector_7" d="M6.27344 14.375H4.71094C4.62464 14.375 4.55469 14.445 4.55469 14.5312V16.0937C4.55469 16.18 4.62464 16.25 4.71094 16.25H6.27344C6.35973 16.25 6.42969 16.18 6.42969 16.0937V14.5312C6.42969 14.445 6.35973 14.375 6.27344 14.375Z" fill="white"/>
<path id="Vector_8" d="M9.39844 14.375H7.83594C7.74964 14.375 7.67969 14.445 7.67969 14.5312V16.0937C7.67969 16.18 7.74964 16.25 7.83594 16.25H9.39844C9.48473 16.25 9.55469 16.18 9.55469 16.0937V14.5312C9.55469 14.445 9.48473 14.375 9.39844 14.375Z" fill="white"/>
<path id="Vector_9" d="M12.5234 14.375H10.9609C10.8746 14.375 10.8047 14.445 10.8047 14.5312V16.0937C10.8047 16.18 10.8746 16.25 10.9609 16.25H12.5234C12.6097 16.25 12.6797 16.18 12.6797 16.0937V14.5312C12.6797 14.445 12.6097 14.375 12.5234 14.375Z" fill="white"/>
<path id="Vector_10" d="M17.6797 2.5H15.8047V1.25H14.2422V2.5H6.11719V1.25H4.55469V2.5H2.67969C2.34817 2.5 2.03022 2.6317 1.7958 2.86612C1.56138 3.10054 1.42969 3.41848 1.42969 3.75V17.5C1.42969 17.8315 1.56138 18.1495 1.7958 18.3839C2.03022 18.6183 2.34817 18.75 2.67969 18.75H17.6797C18.0112 18.75 18.3291 18.6183 18.5636 18.3839C18.798 18.1495 18.9297 17.8315 18.9297 17.5V3.75C18.9297 3.41848 18.798 3.10054 18.5636 2.86612C18.3291 2.6317 18.0112 2.5 17.6797 2.5ZM17.2109 17.0312H3.14844V6.875H17.2109V17.0312Z" fill="white"/>
</g>
</svg>
