<svg width="20" height="20" viewBox="0 0 20 20" fill="none" xmlns="http://www.w3.org/2000/svg">
<g id="IONIcon/F/funnel/default">
<path id="Vector" d="M11.5616 18.125C11.4613 18.1249 11.3617 18.1087 11.2666 18.077L8.13579 17.0352C7.9496 16.9726 7.78786 16.8529 7.67356 16.6932C7.55925 16.5334 7.4982 16.3417 7.49907 16.1453V11.4887C7.49822 11.4868 7.49702 11.4851 7.49556 11.4836L0.907667 3.81016C0.761588 3.63998 0.667411 3.43145 0.636318 3.20934C0.605224 2.98723 0.63852 2.76086 0.732251 2.55711C0.825983 2.35336 0.976214 2.18079 1.16511 2.05988C1.354 1.93897 1.57362 1.8748 1.7979 1.875H18.2022C18.4265 1.8748 18.6461 1.93897 18.835 2.05988C19.0239 2.18079 19.1741 2.35336 19.2678 2.55711C19.3616 2.76086 19.3949 2.98723 19.3638 3.20934C19.3327 3.43145 19.2385 3.63998 19.0924 3.81016L12.5026 11.4844C12.5012 11.4859 12.5001 11.4876 12.4991 11.4895V17.1875C12.4994 17.3107 12.4754 17.4328 12.4284 17.5467C12.3815 17.6606 12.3124 17.7641 12.2253 17.8512C12.1382 17.9383 12.0347 18.0074 11.9208 18.0544C11.8069 18.1014 11.6848 18.1254 11.5616 18.125Z" fill="white"/>
</g>
</svg>
