<svg width="20" height="20" viewBox="0 0 20 20" xmlns="http://www.w3.org/2000/svg">
    <g id="IONIcon/E/eye/off/sharp">
        <path id="Vector"
            d="M3.3593 2.50062L2.5 3.35992L16.6407 17.5007L17.5 16.6414L3.3593 2.50062Z" />
        <path id="Vector_2"
            d="M10.1304 7.50317L12.4964 9.86919C12.4635 9.25235 12.2037 8.66945 11.7669 8.23266C11.3301 7.79587 10.7472 7.53604 10.1304 7.50317Z" />
        <path id="Vector_3"
            d="M9.86943 12.4963L7.50342 10.1303C7.53629 10.7472 7.79611 11.33 8.23291 11.7668C8.6697 12.2036 9.25259 12.4635 9.86943 12.4963Z" />
        <path id="Vector_4"
            d="M10 13.7496C9.42309 13.7496 8.85396 13.6165 8.33688 13.3607C7.8198 13.1049 7.36872 12.7332 7.01873 12.2746C6.66874 11.816 6.42928 11.2828 6.31899 10.7165C6.20869 10.1503 6.23053 9.56619 6.38281 9.00975L3.68476 6.31131C2.58281 7.32068 1.53281 8.63787 0.625 9.99959C1.65703 11.7183 3.06875 13.4855 4.53906 14.4988C6.22578 15.6605 8.05976 16.2496 9.99062 16.2496C11.0458 16.2503 12.0931 16.0679 13.0859 15.7105L10.9918 13.6168C10.6686 13.7052 10.335 13.7499 10 13.7496Z" />
        <path id="Vector_5"
            d="M10 6.24966C10.5769 6.24964 11.146 6.38271 11.6631 6.63854C12.1802 6.89437 12.6313 7.26605 12.9813 7.72466C13.3313 8.18328 13.5707 8.71646 13.681 9.28272C13.7913 9.84899 13.7695 10.4331 13.6172 10.9895L16.3773 13.7497C17.516 12.7243 18.5676 11.345 19.375 9.99966C18.3445 8.30318 16.918 6.54029 15.4227 5.51451C13.7148 4.34341 11.8871 3.74966 9.99062 3.74966C8.94704 3.75116 7.91223 3.94024 6.93555 4.30787L9.01016 6.38248C9.33269 6.2942 9.6656 6.24953 10 6.24966Z" />
    </g>
</svg>