<svg width="20" height="20" viewBox="0 0 20 20" xmlns="http://www.w3.org/2000/svg">
    <g id="IONIcon/E/eye/sharp">
        <path id="Vector"
            d="M10 12.4999C11.3807 12.4999 12.5 11.3807 12.5 9.99994C12.5 8.61923 11.3807 7.49994 10 7.49994C8.61929 7.49994 7.5 8.61923 7.5 9.99994C7.5 11.3807 8.61929 12.4999 10 12.4999Z" />
        <path id="Vector_2"
            d="M15.4227 5.51454C13.7148 4.34344 11.8871 3.74969 9.99062 3.74969C8.28398 3.74969 6.62031 4.25751 5.0457 5.25282C3.45781 6.25868 1.90117 8.08563 0.625 9.99969C1.65703 11.7184 3.06875 13.4856 4.53906 14.4989C6.22578 15.6606 8.05976 16.2497 9.99062 16.2497C11.9047 16.2497 13.7348 15.661 15.432 14.5001C16.9262 13.4763 18.348 11.7114 19.375 9.99969C18.3445 8.30321 16.918 6.54032 15.4227 5.51454ZM10 13.7497C9.25832 13.7497 8.53329 13.5298 7.91661 13.1177C7.29993 12.7056 6.81928 12.12 6.53545 11.4348C6.25162 10.7495 6.17736 9.99553 6.32205 9.2681C6.46675 8.54068 6.8239 7.87249 7.34835 7.34804C7.87279 6.8236 8.54098 6.46644 9.26841 6.32175C9.99584 6.17706 10.7498 6.25132 11.4351 6.53515C12.1203 6.81897 12.706 7.29962 13.118 7.91631C13.5301 8.53299 13.75 9.25801 13.75 9.99969C13.7489 10.9939 13.3534 11.9471 12.6504 12.6501C11.9474 13.3531 10.9942 13.7486 10 13.7497Z" />
    </g>
</svg>