<svg width="21" height="20" viewBox="0 0 21 20" fill="none" xmlns="http://www.w3.org/2000/svg">
<g id="IONIcon/S/search/default">
<path id="Vector" d="M18.6598 16.4625L14.9844 12.7871C15.8692 11.6091 16.3469 10.1753 16.3453 8.70195C16.3453 4.93867 13.2836 1.87695 9.52031 1.87695C5.75703 1.87695 2.69531 4.93867 2.69531 8.70195C2.69531 12.4652 5.75703 15.5269 9.52031 15.5269C10.9936 15.5286 12.4275 15.0509 13.6055 14.166L17.2809 17.8414C17.4669 18.0077 17.7096 18.0965 17.959 18.0895C18.2085 18.0825 18.4458 17.9803 18.6222 17.8039C18.7987 17.6274 18.9009 17.3901 18.9079 17.1406C18.9149 16.8912 18.8261 16.6485 18.6598 16.4625ZM4.64531 8.70195C4.64531 7.73777 4.93123 6.79524 5.4669 5.99355C6.00257 5.19186 6.76394 4.56702 7.65473 4.19804C8.54552 3.82906 9.52572 3.73252 10.4714 3.92062C11.417 4.10873 12.2857 4.57303 12.9675 5.25481C13.6492 5.93659 14.1135 6.80523 14.3016 7.75089C14.4897 8.69654 14.3932 9.67674 14.0242 10.5675C13.6552 11.4583 13.0304 12.2197 12.2287 12.7554C11.427 13.291 10.4845 13.5769 9.52031 13.5769C8.22786 13.5754 6.98878 13.0613 6.07488 12.1474C5.16098 11.2335 4.64686 9.99441 4.64531 8.70195Z" fill="#2D3748"/>
</g>
</svg>
