<svg width="24" height="24" viewBox="0 0 24 24" xmlns="http://www.w3.org/2000/svg">
    <g id="IONIcon/P/person/default">
        <path id="Vector"
            fill='white'
            d="M15.5924 3.0267C14.6802 2.04186 13.4062 1.49951 11.9999 1.49951C10.5862 1.49951 9.30789 2.03857 8.39992 3.01732C7.48211 4.00685 7.03492 5.3517 7.13992 6.80389C7.34805 9.66889 9.5282 11.9995 11.9999 11.9995C14.4716 11.9995 16.648 9.66935 16.8595 6.80482C16.9659 5.36576 16.5159 4.02373 15.5924 3.0267Z" />
        <path id="Vector_2"
            fill='white'
            d="M20.2499 22.4985H3.7499C3.53393 22.5013 3.32005 22.456 3.12382 22.3657C2.92759 22.2755 2.75395 22.1426 2.61553 21.9768C2.31084 21.6126 2.18803 21.1153 2.27896 20.6123C2.67459 18.4176 3.90928 16.574 5.8499 15.2798C7.57396 14.1309 9.75787 13.4985 11.9999 13.4985C14.2419 13.4985 16.4258 14.1313 18.1499 15.2798C20.0905 16.5735 21.3252 18.4171 21.7208 20.6118C21.8118 21.1148 21.689 21.6121 21.3843 21.9763C21.2459 22.1422 21.0723 22.2752 20.876 22.3655C20.6798 22.4558 20.4659 22.5013 20.2499 22.4985Z" />
    </g>
</svg>