<svg width="24" height="24" viewBox="0 0 24 24" fill="none" xmlns="http://www.w3.org/2000/svg">
    <g id="IONIcon/E/earth/outline">
        <path id="Vector"
            d="M21.75 11.9999C21.75 6.61534 17.3845 2.24988 12 2.24988C6.61545 2.24988 2.24999 6.61534 2.24999 11.9999C2.24999 17.3844 6.61545 21.7499 12 21.7499C17.3845 21.7499 21.75 17.3844 21.75 11.9999Z"
            stroke="white" stroke-width="1.5" stroke-miterlimit="10" />
        <path id="Vector_2"
            d="M20.886 8.06911C20.1332 8.0738 20.2072 9.46271 19.2693 8.80739C18.921 8.56458 18.7068 8.21161 18.2694 8.10427C17.8874 8.01052 17.496 8.10802 17.1186 8.17318C16.6897 8.24724 16.1811 8.28052 15.8558 8.60536C15.5413 8.91802 15.3749 9.33755 15.0402 9.65208C14.3929 10.2615 14.1196 10.9266 14.5386 11.7882C14.9418 12.6165 15.785 13.066 16.6949 13.0069C17.5888 12.9474 18.5174 12.429 18.4916 13.7279C18.4822 14.1872 18.5783 14.506 18.7194 14.933C18.8502 15.3268 18.8413 15.7083 18.8713 16.1147C18.9266 16.8741 19.0663 17.7254 19.4432 18.3961L20.1463 17.4043C20.233 17.2815 20.4144 17.1094 20.4575 16.9646C20.5339 16.7082 20.3835 16.2675 20.3661 15.9802C20.3488 15.6929 20.3572 15.4018 20.3132 15.1144C20.2513 14.7118 20.0132 14.3344 19.9804 13.9365C19.9199 13.1954 20.0554 12.6038 19.4844 11.9841C18.9332 11.3865 18.125 11.243 17.353 11.3644C16.9639 11.4254 15.3979 11.6757 16.0264 10.7865C16.1507 10.6116 16.3677 10.4682 16.5074 10.3018C16.6288 10.1569 16.7343 9.89068 16.8768 9.77771C17.0193 9.66474 17.6736 9.53489 17.8611 9.59255C18.0486 9.65021 18.2441 9.92068 18.4068 10.0407C18.7073 10.267 19.058 10.4175 19.4291 10.4794C20.0694 10.5732 21.4082 10.201 21.3979 9.37974C21.396 8.98599 21.0304 8.43755 20.886 8.06911Z"
            fill="white" />
        <path id="Vector_3"
            d="M13.4742 14.8272C13.2243 13.7753 11.7951 13.4237 11.0245 12.8533C10.5815 12.5252 10.1873 12.0184 9.60557 11.9772C9.33745 11.958 9.11292 12.0161 8.84714 11.9472C8.60339 11.8844 8.41214 11.7531 8.15245 11.7873C7.66729 11.8511 7.3612 12.3695 6.83995 12.2992C6.34542 12.2327 5.83589 11.6542 5.72339 11.1831C5.57901 10.5775 6.05807 10.3811 6.57136 10.3272C6.78557 10.3047 7.02604 10.2803 7.23182 10.3586C7.50276 10.4594 7.63073 10.7247 7.87401 10.8587C8.3301 11.1086 8.42245 10.7092 8.35261 10.3042C8.24807 9.69765 8.1262 9.45016 8.66714 9.03297C9.04214 8.74516 9.36276 8.53703 9.30276 8.02C9.26714 7.71625 9.10073 7.57891 9.25589 7.27656C9.37354 7.04641 9.69651 6.83875 9.90698 6.70141C10.4503 6.34703 12.2343 6.37328 11.5054 5.38141C11.2912 5.09031 10.896 4.57 10.521 4.49875C10.0523 4.41016 9.84417 4.93328 9.51745 5.16391C9.17995 5.4025 8.52276 5.67344 8.18479 5.30453C7.73011 4.80813 8.4862 4.645 8.65354 4.2986C8.82089 3.95219 8.26589 3.29735 7.9687 3.13141L6.57136 4.69844C6.53121 4.96087 6.54519 5.22874 6.61242 5.48558C6.67965 5.74241 6.79872 5.98277 6.96229 6.19188C7.24026 6.54953 7.68276 6.66438 7.70292 7.15281C7.72261 7.62156 7.64948 7.86156 7.34292 8.19109C7.21026 8.33172 7.11651 8.53141 6.98151 8.66312C6.81604 8.82391 6.87745 8.77469 6.61917 8.81875C6.13354 8.90078 5.72011 9.02734 5.25089 9.15672C4.46901 9.37281 4.39683 8.09547 4.04058 7.59438L2.8687 8.54078C2.85605 8.69594 3.06089 8.98141 3.11667 9.15016C3.43683 10.1144 4.08276 10.8602 4.49995 11.7827C4.93917 12.7595 6.11854 12.4886 6.63932 13.3445C7.10151 14.1039 6.60792 15.0653 6.95386 15.8603C7.20511 16.4373 7.79761 16.5634 8.20636 16.9853C8.62401 17.4114 8.6151 17.9945 8.67885 18.5491C8.75075 19.2013 8.86743 19.8478 9.02807 20.4841C9.08479 20.7039 9.13682 20.9945 9.28729 21.1759C9.39042 21.3006 9.74432 21.408 9.60135 21.4492C9.80104 21.482 10.1568 21.6686 10.3232 21.5317C10.5426 21.3517 10.484 20.7976 10.522 20.5473C10.6359 19.802 11.009 19.0731 11.5124 18.5153C12.0098 17.965 12.6914 17.5923 13.1114 16.9684C13.5206 16.36 13.6439 15.5392 13.4742 14.8272ZM11.909 16.0609C11.6278 16.563 11.0015 16.8991 10.5989 17.298C10.4896 17.4062 10.2571 17.7812 10.1203 17.7002C10.0223 17.642 9.98901 17.1555 9.95292 17.0439C9.76671 16.4821 9.41124 15.9917 8.93526 15.64C8.78854 15.5289 8.42479 15.3845 8.34089 15.2322C8.24714 15.0667 8.33151 14.6762 8.33479 14.4962C8.33995 14.2337 8.22042 13.7973 8.2851 13.5587C8.3601 13.2836 8.21573 13.4495 8.46182 13.3952C8.59167 13.3661 9.12792 13.4603 9.28964 13.4941C9.54651 13.5475 9.68807 13.7073 9.89057 13.8691C10.4231 14.2961 11.0095 14.6266 11.6062 14.9537C12.0684 15.2097 12.2043 15.5336 11.909 16.0609Z"
            fill="white" />
        <path id="Vector_4"
            d="M8.64655 3.14504C8.86873 3.36207 9.0778 3.61894 9.4092 3.6405C9.7228 3.6616 10.0186 3.49191 10.2923 3.70519C10.5961 3.93957 10.815 4.23628 11.2181 4.30941C11.6081 4.38019 12.0211 4.15238 12.1176 3.75347C12.2114 3.37332 12.0094 2.95988 11.9972 2.57832C11.9972 2.52535 12.0258 2.29004 11.9892 2.25019C11.962 2.22019 11.7351 2.25394 11.7005 2.25488C11.4464 2.26238 11.193 2.27988 10.9401 2.30738C10.0185 2.40714 9.11589 2.63839 8.25983 2.9941C8.37373 3.07285 8.5167 3.10425 8.64655 3.14504Z"
            fill="white" />
        <path id="Vector_5"
            d="M16.7061 5.77843C17.1041 5.77843 17.5081 5.6003 17.3797 5.13999C17.2719 4.75421 17.0881 4.33562 16.641 4.54374C16.3564 4.67593 15.9533 5.01249 15.92 5.34624C15.8821 5.72499 16.4408 5.77843 16.7061 5.77843Z"
            fill="white" />
        <path id="Vector_6"
            d="M16.3885 7.79253C16.7949 8.03581 17.3977 7.92144 17.7043 7.57409C17.9438 7.30222 18.0849 6.83019 18.5157 6.83066C18.7054 6.83026 18.8876 6.90452 19.0229 7.03738C19.201 7.22159 19.1659 7.39456 19.2038 7.62519C19.2887 8.14316 19.8441 7.65472 19.989 7.45409C20.0827 7.32331 20.2098 7.12925 20.1671 6.95909C20.1277 6.80019 19.9421 6.63097 19.8596 6.48519C19.6187 6.06331 19.4204 5.57253 19.0595 5.23175C18.7121 4.90363 18.2851 4.9416 17.9556 5.28238C17.6856 5.56363 17.372 5.78628 17.1873 6.12847C17.057 6.36894 16.9102 6.48378 16.6463 6.54613C16.501 6.58034 16.3351 6.593 16.2132 6.6905C15.8738 6.95769 16.067 7.59941 16.3885 7.79253Z"
            fill="white" />
    </g>
</svg>