<svg width="0" height="0"><symbol xmlns="http://www.w3.org/2000/svg" id="arrow-to-back" fill="none" viewBox="0 0 24 24"><g id="IONIcon/C/chevron/back/outline"><path id="Vector" stroke="#2D3748" stroke-linecap="round" stroke-linejoin="round" stroke-width="1.5" d="M15.375 5.25 8.625 12l6.75 6.75"/></g></symbol><symbol xmlns="http://www.w3.org/2000/svg" id="calendar" fill="none" viewBox="0 0 21 20"><g id="IONIcon/C/calendar/sharp" fill="#fff"><path d="M12.523 8.125h-1.562a.156.156 0 0 0-.156.156v1.563c0 .086.07.156.156.156h1.562c.087 0 .157-.07.157-.156V8.28a.156.156 0 0 0-.157-.156Z"/><path id="Vector_2" d="M15.648 8.125h-1.562a.156.156 0 0 0-.156.156v1.563c0 .086.07.156.156.156h1.562c.087 0 .157-.07.157-.156V8.28a.156.156 0 0 0-.157-.156Z"/><path id="Vector_3" d="M12.523 11.248h-1.562a.156.156 0 0 0-.156.156v1.563c0 .086.07.156.156.156h1.562c.087 0 .157-.07.157-.156v-1.563a.156.156 0 0 0-.157-.156Z"/><path id="Vector_4" d="M15.648 11.248h-1.562a.156.156 0 0 0-.156.156v1.563c0 .086.07.156.156.156h1.562c.087 0 .157-.07.157-.156v-1.563a.156.156 0 0 0-.157-.156Z"/><path id="Vector_5" d="M6.273 11.248H4.711a.156.156 0 0 0-.156.156v1.563c0 .086.07.156.156.156h1.562c.087 0 .157-.07.157-.156v-1.563a.156.156 0 0 0-.157-.156Z"/><path id="Vector_6" d="M9.398 11.248H7.836a.156.156 0 0 0-.156.156v1.563c0 .086.07.156.156.156h1.562c.087 0 .157-.07.157-.156v-1.563a.156.156 0 0 0-.157-.156Z"/><path id="Vector_7" d="M6.273 14.375H4.711a.156.156 0 0 0-.156.156v1.563c0 .086.07.156.156.156h1.562c.087 0 .157-.07.157-.156V14.53a.156.156 0 0 0-.157-.156Z"/><path id="Vector_8" d="M9.398 14.375H7.836a.156.156 0 0 0-.156.156v1.563c0 .086.07.156.156.156h1.562c.087 0 .157-.07.157-.156V14.53a.156.156 0 0 0-.157-.156Z"/><path id="Vector_9" d="M12.523 14.375h-1.562a.156.156 0 0 0-.156.156v1.563c0 .086.07.156.156.156h1.562c.087 0 .157-.07.157-.156V14.53a.156.156 0 0 0-.157-.156Z"/><path id="Vector_10" d="M17.68 2.5h-1.875V1.25h-1.563V2.5H6.117V1.25H4.555V2.5H2.68a1.25 1.25 0 0 0-1.25 1.25V17.5a1.25 1.25 0 0 0 1.25 1.25h15a1.25 1.25 0 0 0 1.25-1.25V3.75a1.25 1.25 0 0 0-1.25-1.25Zm-.47 14.531H3.149V6.875h14.063v10.156Z"/></g></symbol><symbol xmlns="http://www.w3.org/2000/svg" id="chevron" fill="none" stroke-linecap="round" stroke-linejoin="round" stroke-width="1.5" viewBox="0 0 16 16"><path d="M10.25 3.5 5.75 8l4.5 4.5"/></symbol><symbol xmlns="http://www.w3.org/2000/svg" id="close" fill="none" stroke-linecap="round" stroke-linejoin="round" stroke-width="1.5" viewBox="0 0 16 16"><path d="m11.5 12-7-7m7 0-7 7"/></symbol><symbol xmlns="http://www.w3.org/2000/svg" id="filters" fill="none" viewBox="0 0 20 20"><g id="IONIcon/F/funnel/default"><path fill="#fff" d="M11.562 18.125c-.1 0-.2-.016-.295-.048l-3.131-1.042a.935.935 0 0 1-.637-.89V11.49a.018.018 0 0 0-.003-.005L.908 3.81a1.172 1.172 0 0 1 .89-1.935h16.404a1.172 1.172 0 0 1 .89 1.935l-6.59 7.674a.023.023 0 0 0-.003.005v5.698a.936.936 0 0 1-.937.938Z"/></g></symbol><symbol xmlns="http://www.w3.org/2000/svg" id="help" fill="none" viewBox="0 0 24 24"><g id="IONIcon/H/help/circle"><path fill="#76E4F7" d="M12 3c-4.969 0-9 4.031-9 9s4.031 9 9 9 9-4.031 9-9-4.031-9-9-9Zm-.281 14.25a.938.938 0 1 1 0-1.875.938.938 0 0 1 0 1.875Zm1.567-4.781c-.76.51-.864.977-.864 1.406a.656.656 0 0 1-1.313 0c0-1.027.473-1.844 1.445-2.497.904-.606 1.415-.99 1.415-1.836 0-.574-.328-1.01-1.008-1.334-.16-.076-.515-.15-.953-.145-.55.007-.976.139-1.305.403-.62.499-.672 1.042-.672 1.05a.656.656 0 1 1-1.312-.064c.005-.114.084-1.14 1.16-2.006.56-.449 1.27-.682 2.11-.693.595-.007 1.155.094 1.534.273 1.135.537 1.758 1.432 1.758 2.516 0 1.586-1.06 2.298-1.995 2.927Z"/></g></symbol><symbol xmlns="http://www.w3.org/2000/svg" id="paperclip" fill="none" viewBox="0 0 24 25"><g id="Paperclip"><path stroke="#0BC5EA" stroke-linecap="round" stroke-linejoin="round" stroke-width="1.5" d="m15 8-7.81 7.94a1.5 1.5 0 1 0 2.12 2.121l9.31-9.44a3.002 3.002 0 0 0-.973-4.893 3 3 0 0 0-3.269.65l-9.31 9.44a4.5 4.5 0 1 0 6.364 6.364l7.692-7.682"/></g></symbol><symbol xmlns="http://www.w3.org/2000/svg" id="password-eye-hide" viewBox="0 0 20 20"><g id="IONIcon/E/eye/off/sharp"><path d="m3.36 2.5-.86.86L16.64 17.5l.86-.859L3.36 2.501Zm6.77 5.003 2.366 2.366a2.503 2.503 0 0 0-2.366-2.366Zm-.26 4.993L7.502 10.13a2.503 2.503 0 0 0 2.366 2.366Z"/><path d="M10 13.75a3.75 3.75 0 0 1-3.617-4.74l-2.698-2.7C2.583 7.321 1.533 8.638.625 10c1.032 1.718 2.444 3.486 3.914 4.499 1.687 1.162 3.52 1.75 5.452 1.75a9.12 9.12 0 0 0 3.095-.538l-2.094-2.094a3.747 3.747 0 0 1-.992.133Zm0-7.5a3.75 3.75 0 0 1 3.617 4.74l2.76 2.76c1.139-1.026 2.19-2.405 2.998-3.75-1.03-1.697-2.457-3.46-3.952-4.485C13.715 4.343 11.887 3.75 9.99 3.75a8.708 8.708 0 0 0-3.055.558L9.01 6.382c.323-.088.656-.132.99-.132Z"/></g></symbol><symbol xmlns="http://www.w3.org/2000/svg" id="password-eye" viewBox="0 0 20 20"><g id="IONIcon/E/eye/sharp"><path d="M10 12.5a2.5 2.5 0 1 0 0-5 2.5 2.5 0 0 0 0 5Z"/><path d="M15.423 5.515C13.715 4.343 11.887 3.75 9.99 3.75c-1.707 0-3.37.508-4.945 1.503C3.458 6.259 1.9 8.086.625 10c1.032 1.718 2.444 3.486 3.914 4.499 1.687 1.162 3.52 1.75 5.452 1.75 1.914 0 3.744-.588 5.441-1.749 1.494-1.024 2.916-2.789 3.943-4.5-1.03-1.697-2.457-3.46-3.952-4.485ZM10 13.75a3.75 3.75 0 1 1 0-7.5 3.75 3.75 0 0 1 0 7.5Z"/></g></symbol><symbol xmlns="http://www.w3.org/2000/svg" id="plus" fill="none" viewBox="0 0 24 24"><g id="IONIcon/A/add/default" stroke="#fff" stroke-linecap="round" stroke-linejoin="round" stroke-width="2"><path d="M12 5.25v13.5M18.75 12H5.25"/></g></symbol><symbol xmlns="http://www.w3.org/2000/svg" id="search" fill="none" viewBox="0 0 21 20"><g id="IONIcon/S/search/default"><path fill="#2D3748" d="m18.66 16.462-3.676-3.675a6.79 6.79 0 0 0 1.361-4.085A6.833 6.833 0 0 0 9.52 1.877a6.833 6.833 0 0 0-6.825 6.825 6.833 6.833 0 0 0 6.825 6.825 6.789 6.789 0 0 0 4.085-1.361l3.676 3.675a.976.976 0 0 0 1.379-1.379ZM4.645 8.702a4.875 4.875 0 1 1 9.75 0 4.875 4.875 0 0 1-9.75 0Z"/></g></symbol><symbol xmlns="http://www.w3.org/2000/svg" id="step-checked" fill="none" viewBox="0 0 11 9"><path fill="#0f8a42" d="M10.291.832a.977.977 0 0 0-1.43-.014L4.39 5.462 2.14 3.124a.977.977 0 0 0-1.431.014 1.072 1.072 0 0 0 .012 1.46l3.67 3.813 5.888-6.118A1.072 1.072 0 0 0 10.29.832Z"/></symbol><symbol xmlns="http://www.w3.org/2000/svg" id="verify-checked" fill="none" viewBox="0 0 24 24"><path fill="#38A169" d="M12 22.75C6.07 22.75 1.25 17.93 1.25 12S6.07 1.25 12 1.25 22.75 6.07 22.75 12 17.93 22.75 12 22.75Zm0-20C6.9 2.75 2.75 6.9 2.75 12S6.9 21.25 12 21.25s9.25-4.15 9.25-9.25S17.1 2.75 12 2.75Z"/><path fill="#38A169" d="M10.58 15.58a.75.75 0 0 1-.53-.22l-2.83-2.83a.754.754 0 0 1 0-1.06c.29-.29.77-.29 1.06 0l2.3 2.3 5.14-5.14c.29-.29.77-.29 1.06 0 .29.29.29.77 0 1.06l-5.67 5.67a.75.75 0 0 1-.53.22Z"/></symbol></svg>