<svg width="0" height="0"><symbol xmlns="http://www.w3.org/2000/svg" id="deals" viewBox="0 0 20 20"><g id="IONIcon/D/document/default"><path id="Vector" d="M16.719 8.75H11.25a1.875 1.875 0 0 1-1.875-1.875V1.406a.156.156 0 0 0-.156-.156H5.625a2.5 2.5 0 0 0-2.5 2.5v12.5a2.5 2.5 0 0 0 2.5 2.5h8.75a2.5 2.5 0 0 0 2.5-2.5V8.906a.156.156 0 0 0-.156-.156Z"/><path id="Vector_2" d="M16.376 7.368 10.758 1.75a.078.078 0 0 0-.133.055v5.071a.625.625 0 0 0 .625.625h5.07a.078.078 0 0 0 .056-.133Z"/></g></symbol><symbol xmlns="http://www.w3.org/2000/svg" id="mail" fill="none" viewBox="0 0 20 20"><g id="IONIcon/M/mail/open"><path fill="#0BC5EA" d="m17.526 6.033-6.819-3.369a1.605 1.605 0 0 0-1.414 0l-6.82 3.37A2.172 2.172 0 0 0 1.25 7.988V15.2c0 1.206.993 2.187 2.214 2.187h13.072c1.221 0 2.214-.981 2.214-2.187V7.989a2.172 2.172 0 0 0-1.224-1.956ZM9.86 3.782a.321.321 0 0 1 .282 0l6.617 3.268-6.719 3.32a.321.321 0 0 1-.283 0L3.14 7.102l6.72-3.32Z"/></g></symbol><symbol xmlns="http://www.w3.org/2000/svg" id="main" viewBox="0 0 20 20"><g id="Icon"><path d="M10.217 3.957a.312.312 0 0 0-.432 0l-7.191 6.87a.312.312 0 0 0-.097.226L2.496 17.5a1.25 1.25 0 0 0 1.25 1.25H7.5a.625.625 0 0 0 .625-.625v-5.312a.312.312 0 0 1 .312-.313h3.125a.313.313 0 0 1 .313.313v5.312a.625.625 0 0 0 .625.625h3.752a1.25 1.25 0 0 0 1.25-1.25v-6.447a.313.313 0 0 0-.096-.226l-7.189-6.87Z"/><path d="m19.177 9.538-2.922-2.795V2.501a.625.625 0 0 0-.625-.625h-1.875a.625.625 0 0 0-.625.625v1.25l-2.263-2.163A1.216 1.216 0 0 0 10 1.25a1.21 1.21 0 0 0-.864.337L.827 9.538a.637.637 0 0 0-.052.873.625.625 0 0 0 .905.042l8.106-7.746a.313.313 0 0 1 .432 0l8.106 7.746a.625.625 0 0 0 .882-.017.64.64 0 0 0-.03-.898Z"/></g></symbol><symbol xmlns="http://www.w3.org/2000/svg" id="messages" viewBox="0 0 20 20"><g id="IONIcon/C/chatbox/default"><path d="M5.625 18.124A.625.625 0 0 1 5 17.5V15h-.938a2.816 2.816 0 0 1-2.812-2.812v-7.5a2.816 2.816 0 0 1 2.813-2.813h11.875a2.815 2.815 0 0 1 2.812 2.813v7.5A2.816 2.816 0 0 1 15.937 15H9.6l-3.574 2.98a.627.627 0 0 1-.4.145Z"/></g></symbol><symbol xmlns="http://www.w3.org/2000/svg" id="notifications" viewBox="0 0 20 20"><g id="IONIcon/N/notifications/default"><path d="m17.191 13.332-.19-.232c-.86-1.04-1.38-1.666-1.38-4.61 0-1.523-.365-2.773-1.083-3.71-.53-.693-1.246-1.218-2.19-1.606a.117.117 0 0 1-.031-.026C11.977 2.01 11.048 1.25 10 1.25c-1.048 0-1.977.76-2.316 1.896a.123.123 0 0 1-.032.026C5.45 4.078 4.38 5.818 4.38 8.49c0 2.944-.52 3.57-1.38 4.61l-.19.23a1.373 1.373 0 0 0-.182 1.47c.24.508.754.823 1.34.823h12.067c.583 0 1.093-.314 1.335-.82a1.374 1.374 0 0 0-.18-1.471ZM10 18.75a3.128 3.128 0 0 0 2.751-1.646.157.157 0 0 0-.138-.229H7.387a.156.156 0 0 0-.138.23 3.128 3.128 0 0 0 2.75 1.645Z"/></g></symbol><symbol xmlns="http://www.w3.org/2000/svg" id="print" fill="none" viewBox="0 0 20 20"><g id="IONIcon/P/print/default" fill="#0BC5EA"><path d="M15.938 4.375H4.14a2.266 2.266 0 0 0-2.266 2.266v6.171A2.187 2.187 0 0 0 4.063 15h.312v1.55a1.575 1.575 0 0 0 1.575 1.575h8.1a1.575 1.575 0 0 0 1.575-1.575V15h.313a2.188 2.188 0 0 0 2.187-2.188v-6.25a2.188 2.188 0 0 0-2.188-2.187ZM14.374 16.55a.327.327 0 0 1-.325.325h-8.1a.326.326 0 0 1-.325-.325v-6.225A.326.326 0 0 1 5.95 10h8.1a.326.326 0 0 1 .325.325v6.225Zm1.016-8.428a.937.937 0 1 1-.15-1.869.937.937 0 0 1 .15 1.869Zm-1.952-6.247H6.563A2.191 2.191 0 0 0 4.398 3.75h11.205a2.191 2.191 0 0 0-2.165-1.875Z"/></g></symbol><symbol xmlns="http://www.w3.org/2000/svg" id="proposals" viewBox="0 0 20 20"><g id="IONIcon/R/reader/default"><path d="M14.375 1.25h-8.75a2.503 2.503 0 0 0-2.5 2.5v12.5a2.503 2.503 0 0 0 2.5 2.5h8.75a2.503 2.503 0 0 0 2.5-2.5V3.75a2.503 2.503 0 0 0-2.5-2.5ZM10 11.875H6.875a.625.625 0 1 1 0-1.25H10a.624.624 0 1 1 0 1.25Zm3.125-3.125h-6.25a.625.625 0 0 1 0-1.25h6.25a.625.625 0 1 1 0 1.25Zm0-3.125h-6.25a.625.625 0 0 1 0-1.25h6.25a.625.625 0 1 1 0 1.25Z"/></g></symbol><symbol xmlns="http://www.w3.org/2000/svg" id="settings" viewBox="0 0 20 20"><g id="IONIcon/S/settings/default"><path d="M10 11.876a1.875 1.875 0 1 0 0-3.75 1.875 1.875 0 0 0 0 3.75Z"/><path d="m18.375 11.719-.019-.015-1.233-.967a.63.63 0 0 1-.238-.52v-.452a.626.626 0 0 1 .239-.517l1.232-.967.019-.015a1.043 1.043 0 0 0 .23-1.33l-1.668-2.887a1.05 1.05 0 0 0-1.273-.45l-.014.005-1.449.583a.623.623 0 0 1-.565-.05 7.042 7.042 0 0 0-.39-.229.624.624 0 0 1-.32-.462l-.22-1.546-.005-.028a1.063 1.063 0 0 0-1.032-.856H8.33a1.052 1.052 0 0 0-1.034.874l-.003.022-.218 1.55a.625.625 0 0 1-.317.461 6.84 6.84 0 0 0-.39.228.622.622 0 0 1-.564.05l-1.45-.587-.015-.005a1.05 1.05 0 0 0-1.268.443l-.005.009-1.671 2.888a1.043 1.043 0 0 0 .23 1.332l.019.015 1.233.967a.63.63 0 0 1 .238.52v.452a.625.625 0 0 1-.239.517l-1.232.967-.019.015a1.042 1.042 0 0 0-.23 1.33l1.668 2.887a1.05 1.05 0 0 0 1.273.45l.014-.005 1.448-.584a.622.622 0 0 1 .565.05c.128.082.258.158.39.23a.622.622 0 0 1 .32.462l.218 1.546.004.028a1.064 1.064 0 0 0 1.035.856h3.34a1.052 1.052 0 0 0 1.034-.874l.003-.022.218-1.55a.625.625 0 0 1 .32-.461 7.5 7.5 0 0 0 .39-.228.622.622 0 0 1 .563-.05l1.45.585.014.005a1.05 1.05 0 0 0 1.274-.451l1.669-2.887a1.043 1.043 0 0 0-.23-1.332Zm-5.254-1.572a3.125 3.125 0 1 1-3.267-3.268 3.133 3.133 0 0 1 3.268 3.268Z"/></g></symbol><symbol xmlns="http://www.w3.org/2000/svg" id="staff" viewBox="0 0 25 24"><g id="Type=IONIcon, Size=B, State=briefcase, Property 4=sharp"><path d="M15.833 13.385H9.167V12H2.5v5.999A3 3 0 0 0 5.5 21h14.555a2.445 2.445 0 0 0 2.445-2.445V12h-6.667v1.385ZM22.5 9.937V8.91a3 3 0 0 0-3.001-3h-1.666V4a1 1 0 0 0-1-1H8.167a1 1 0 0 0-1 1v1.909H5.5a3 3 0 0 0-3.001 3V11h20V9.937Zm-6.333-4.028H8.833V4.82h7.334v1.09Z"/></g></symbol><symbol xmlns="http://www.w3.org/2000/svg" id="statistic" viewBox="0 0 20 20"><g id="IONIcon/P/pie/chart"><path d="M2.582 13.945a.624.624 0 0 1-.57-.37A8.75 8.75 0 0 1 10 1.25a.625.625 0 0 1 .625.625V10a.625.625 0 0 1-.37.57l-7.418 3.32a.622.622 0 0 1-.255.056Z"/><path d="M12.25 2.663a.312.312 0 0 0-.375.305V10a1.877 1.877 0 0 1-1.109 1.711l-6.737 3.015a.313.313 0 0 0-.131.462 8.142 8.142 0 0 0 1.893 1.969 8.06 8.06 0 0 0 4.834 1.593c4.48 0 8.125-3.645 8.125-8.125 0-3.924-2.796-7.207-6.5-7.962Z"/></g></symbol><symbol xmlns="http://www.w3.org/2000/svg" id="users" viewBox="0 0 20 20"><g id="IONIcon/P/person/default"><path d="M12.994 2.522c-.76-.82-1.822-1.272-2.994-1.272-1.178 0-2.243.449-3 1.264-.765.825-1.137 1.946-1.05 3.156C6.123 8.057 7.94 10 10 10c2.06 0 3.873-1.942 4.05-4.33.088-1.199-.287-2.317-1.056-3.148Zm3.881 16.227H3.125a1.209 1.209 0 0 1-.945-.435 1.38 1.38 0 0 1-.28-1.137c.33-1.829 1.358-3.365 2.975-4.444C6.312 11.776 8.132 11.25 10 11.25c1.869 0 3.688.527 5.125 1.484 1.617 1.079 2.646 2.615 2.976 4.444a1.38 1.38 0 0 1-.28 1.137 1.212 1.212 0 0 1-.946.435Z"/></g></symbol></svg>