<svg width="0" height="0"><symbol xmlns="http://www.w3.org/2000/svg" id="attraction-mark" fill="none" viewBox="0 0 32 46"><mask id="a" width="32" height="46" x=".307" y="0" fill="#000" maskUnits="userSpaceOnUse"><path fill="#fff" d="M.307 0h32v46h-32z"/><path fill-rule="evenodd" d="M22.476 29.516c4.942-2.425 8.351-7.566 8.351-13.516 0-8.284-6.608-15-14.76-15-8.152 0-14.76 6.716-14.76 15 0 5.907 3.359 11.016 8.242 13.462l5.553 14.16c.332.847 1.531.846 1.863-.001l5.511-14.105Z" clip-rule="evenodd"/></mask><path fill="#0f8a42" fill-rule="evenodd" d="M22.476 29.516c4.942-2.425 8.351-7.566 8.351-13.516 0-8.284-6.608-15-14.76-15-8.152 0-14.76 6.716-14.76 15 0 5.907 3.359 11.016 8.242 13.462l5.553 14.16c.332.847 1.531.846 1.863-.001l5.511-14.105Z" clip-rule="evenodd"/><path fill="#fff" fill-opacity=".8" d="m22.476 29.516-.44-.898-.35.172-.141.362.931.364Zm-12.927-.054.93-.365-.14-.357-.342-.172-.448.894Zm5.553 14.16.931-.365-.93.365Zm1.863-.001-.932-.364.931.364ZM29.827 16c0 5.56-3.185 10.358-7.792 12.618l.881 1.796c5.277-2.59 8.911-8.074 8.911-14.414h-2ZM16.067 2c7.584 0 13.76 6.253 13.76 14h2c0-8.821-7.04-16-15.76-16v2ZM2.307 16c0-7.747 6.175-14 13.76-14V0C7.347 0 .307 7.179.307 16h2Zm7.69 12.568C5.445 26.288 2.307 21.52 2.307 16h-2c0 6.293 3.58 11.744 8.794 14.356l.896-1.788Zm-1.379 1.26 5.553 14.159 1.862-.73-5.553-14.16-1.862.73Zm5.553 14.159c.665 1.694 3.063 1.693 3.725-.002l-1.863-.728-1.862.73Zm3.725-.002 5.511-14.105-1.862-.728-5.512 14.105 1.863.728Z" mask="url(#a)"/><g clip-path="url(#b)"><g stroke="#fff" stroke-linecap="round" stroke-linejoin="round" stroke-miterlimit="10" stroke-width="1.7" clip-path="url(#c)"><path d="M17.623 22.24v-5.52m-2.881 5.52v-5.52m-2.881 5.52v-5.52m8.638 5.52v-5.52M16.179 10l-6 4.5h12l-6-4.5Z"/></g></g><defs><clipPath id="b"><path fill="#fff" d="M9.179 9h13.776v14H9.179z"/></clipPath><clipPath id="c"><path fill="#fff" d="M9.179 9h14v14h-14z"/></clipPath></defs></symbol></svg>