<svg width="0" height="0"><symbol xmlns="http://www.w3.org/2000/svg" id="attraction-mark" fill="none" viewBox="0 0 32 46"><mask id="a" width="32" height="46" x=".307" y="0" fill="#000" maskUnits="userSpaceOnUse"><path fill="#fff" d="M.307 0h32v46h-32z"/><path fill-rule="evenodd" d="M22.476 29.516c4.942-2.425 8.351-7.566 8.351-13.516 0-8.284-6.608-15-14.76-15-8.152 0-14.76 6.716-14.76 15 0 5.907 3.359 11.016 8.242 13.462l5.553 14.16c.332.847 1.531.846 1.863-.001l5.511-14.105Z" clip-rule="evenodd"/></mask><path fill="#0f8a42" fill-rule="evenodd" d="M22.476 29.516c4.942-2.425 8.351-7.566 8.351-13.516 0-8.284-6.608-15-14.76-15-8.152 0-14.76 6.716-14.76 15 0 5.907 3.359 11.016 8.242 13.462l5.553 14.16c.332.847 1.531.846 1.863-.001l5.511-14.105Z" clip-rule="evenodd"/><path fill="#fff" fill-opacity=".8" d="m22.476 29.516-.44-.898-.35.172-.141.362.931.364Zm-12.927-.054.93-.365-.14-.357-.342-.172-.448.894Zm5.553 14.16.931-.365-.93.365Zm1.863-.001-.932-.364.931.364ZM29.827 16c0 5.56-3.185 10.358-7.792 12.618l.881 1.796c5.277-2.59 8.911-8.074 8.911-14.414h-2ZM16.067 2c7.584 0 13.76 6.253 13.76 14h2c0-8.821-7.04-16-15.76-16v2ZM2.307 16c0-7.747 6.175-14 13.76-14V0C7.347 0 .307 7.179.307 16h2Zm7.69 12.568C5.445 26.288 2.307 21.52 2.307 16h-2c0 6.293 3.58 11.744 8.794 14.356l.896-1.788Zm-1.379 1.26 5.553 14.159 1.862-.73-5.553-14.16-1.862.73Zm5.553 14.159c.665 1.694 3.063 1.693 3.725-.002l-1.863-.728-1.862.73Zm3.725-.002 5.511-14.105-1.862-.728-5.512 14.105 1.863.728Z" mask="url(#a)"/><g clip-path="url(#b)"><g stroke="#fff" stroke-linecap="round" stroke-linejoin="round" stroke-miterlimit="10" stroke-width="1.7" clip-path="url(#c)"><path d="M17.623 22.24v-5.52m-2.881 5.52v-5.52m-2.881 5.52v-5.52m8.638 5.52v-5.52M16.179 10l-6 4.5h12l-6-4.5Z"/></g></g><defs><clipPath id="b"><path fill="#fff" d="M9.179 9h13.776v14H9.179z"/></clipPath><clipPath id="c"><path fill="#fff" d="M9.179 9h14v14h-14z"/></clipPath></defs></symbol><symbol xmlns="http://www.w3.org/2000/svg" id="hotel-mark" fill="none" viewBox="0 0 32 46"><path fill="#0f8a42" fill-rule="evenodd" d="M22.513 29.516C27.535 27.091 31 21.95 31 16c0-8.284-6.716-15-15-15C7.716 1 1 7.716 1 16c0 5.907 3.414 11.016 8.376 13.462l5.66 14.203c.336.84 1.525.84 1.86-.001l5.617-14.148Z" clip-rule="evenodd"/><path fill="#fff" fill-opacity=".8" d="m22.513 29.516-.435-.9-.35.169-.144.362.93.369Zm-13.137-.054.93-.37-.143-.357-.345-.17-.442.897Zm5.66 14.203.93-.37-.93.37Zm1.86-.001.928.369-.929-.37ZM30 16c0 5.552-3.232 10.351-7.922 12.615l.87 1.802C28.302 27.83 32 22.347 32 16h-2ZM16 2c7.732 0 14 6.268 14 14h2c0-8.837-7.163-16-16-16v2ZM2 16C2 8.268 8.268 2 16 2V0C7.163 0 0 7.163 0 16h2Zm7.818 12.565C5.184 26.281 2 21.511 2 16H0c0 6.302 3.643 11.75 8.934 14.359l.884-1.794Zm-1.37 1.267 5.66 14.203 1.858-.74-5.66-14.203-1.859.74Zm5.66 14.203c.67 1.68 3.049 1.68 3.716-.002l-1.858-.738-1.858.74Zm3.716-.002 5.619-14.148-1.86-.738-5.617 14.148 1.859.738Z" mask="url(#a)"/><path fill="#fff" fill-rule="evenodd" d="M10.556 12.778a.778.778 0 0 0-1.556 0v7.187a.778.778 0 0 0 1.556 0v-.747h10.888v.747a.778.778 0 0 0 1.556 0V16.48a.778.778 0 0 0-.538-.74l-6.534-2.115a.778.778 0 0 0-1 .577l-.74 3.46h-3.632v-4.884Z" clip-rule="evenodd"/><path fill="#fff" d="M12.637 16.885a1.245 1.245 0 1 0 0-2.49 1.245 1.245 0 0 0 0 2.49Z"/></symbol><symbol xmlns="http://www.w3.org/2000/svg" id="restaurant-mark" fill="none" viewBox="0 0 32 46"><path fill="#0f8a42" fill-rule="evenodd" d="M22.513 29.516C27.535 27.091 31 21.95 31 16c0-8.284-6.716-15-15-15C7.716 1 1 7.716 1 16c0 5.907 3.414 11.016 8.376 13.462l5.66 14.203c.336.84 1.525.84 1.86-.001l5.617-14.148Z" clip-rule="evenodd"/><path fill="#fff" fill-opacity=".8" d="m22.513 29.516-.435-.9-.35.169-.144.362.93.369Zm-13.137-.054.93-.37-.143-.357-.345-.17-.442.897Zm5.66 14.203.93-.37-.93.37Zm1.86-.001.928.369-.929-.37ZM30 16c0 5.552-3.232 10.351-7.922 12.615l.87 1.802C28.302 27.83 32 22.347 32 16h-2ZM16 2c7.732 0 14 6.268 14 14h2c0-8.837-7.163-16-16-16v2ZM2 16C2 8.268 8.268 2 16 2V0C7.163 0 0 7.163 0 16h2Zm7.818 12.565C5.184 26.281 2 21.511 2 16H0c0 6.302 3.643 11.75 8.934 14.359l.884-1.794Zm-1.37 1.267 5.66 14.203 1.858-.74-5.66-14.203-1.859.74Zm5.66 14.203c.67 1.68 3.049 1.68 3.716-.002l-1.858-.738-1.858.74Zm3.716-.002 5.619-14.148-1.86-.738-5.617 14.148 1.859.738Z" mask="url(#a)"/><g fill="#fff" fill-rule="evenodd" clip-path="url(#b)" clip-rule="evenodd"><path d="M20.087 9.015c.353.064.605.322.605.621v12.728c0 .351-.345.636-.77.636-.424 0-.769-.285-.769-.636v-3.87h-.923c-.425 0-.77-.284-.77-.636v-4.25c0-.703.179-1.378.531-2.02l.002-.003 1.23-2.214c.152-.272.51-.42.864-.356Zm-6.397 5.37c.298 0 .54.276.54.617v7.38c0 .342-.242.618-.54.618-.297 0-.538-.276-.538-.617v-7.381c0-.341.241-.617.539-.617Z"/><path d="M11.653 9c.361 0 .654.303.654.676v3.596c0 .465.36.838.81.838h1.15c.45 0 .81-.373.81-.838V9.676c0-.373.293-.676.654-.676.361 0 .654.303.654.676v3.596c0 1.211-.946 2.19-2.118 2.19h-1.15c-1.171 0-2.117-.979-2.117-2.19V9.676c0-.373.293-.676.653-.676Z"/><path d="M13.69 9c.298 0 .54.262.54.585V13.8c0 .324-.242.586-.54.586-.297 0-.538-.262-.538-.586V9.585c0-.323.241-.585.539-.585Z"/></g></symbol></svg>