<svg width="0" height="0"><symbol xmlns="http://www.w3.org/2000/svg" id="account" viewBox="0 0 24 24"><g id="IONIcon/P/person/default" fill="#fff"><path id="Vector" d="M15.592 3.027C14.68 2.042 13.406 1.5 12 1.5c-1.414 0-2.692.539-3.6 1.517-.918.99-1.365 2.335-1.26 3.787.208 2.865 2.388 5.195 4.86 5.195 2.472 0 4.648-2.33 4.86-5.194.106-1.44-.344-2.781-1.268-3.778Z"/><path id="Vector_2" d="M20.25 22.498H3.75a1.453 1.453 0 0 1-1.134-.521 1.655 1.655 0 0 1-.337-1.365c.396-2.194 1.63-4.038 3.57-5.332 1.725-1.15 3.909-1.781 6.15-1.781 2.243 0 4.427.632 6.15 1.78 1.941 1.294 3.176 3.138 3.572 5.333.09.503-.032 1-.337 1.364a1.453 1.453 0 0 1-1.134.523Z"/></g></symbol><symbol xmlns="http://www.w3.org/2000/svg" id="carta" viewBox="0 0 24 24"><g id="IONIcon/M/map/sharp"><path fill="#fff" d="m15.362 6.139-6.737-4.31L1.5 6.751v15.75l7.139-4.637 6.736 4.31L22.5 17.25V1.501L15.362 6.14Zm-.737 13.597-5.25-3.375V4.267l5.25 3.375v12.094Z"/></g></symbol><symbol xmlns="http://www.w3.org/2000/svg" id="earth" fill="none" viewBox="0 0 24 24"><g id="IONIcon/E/earth/outline"><path stroke="#fff" stroke-miterlimit="10" stroke-width="1.5" d="M21.75 12c0-5.385-4.366-9.75-9.75-9.75A9.75 9.75 0 0 0 2.25 12c0 5.384 4.365 9.75 9.75 9.75 5.384 0 9.75-4.366 9.75-9.75Z"/><path fill="#fff" d="M20.886 8.07c-.753.004-.679 1.393-1.617.737-.348-.242-.562-.595-1-.703-.382-.093-.773.004-1.15.07-.43.073-.938.107-1.263.431-.315.313-.481.733-.816 1.047-.647.61-.92 1.275-.501 2.136.403.829 1.246 1.278 2.156 1.219.894-.06 1.822-.578 1.797.72-.01.46.086.779.227 1.206.131.394.122.775.152 1.182.056.76.195 1.61.572 2.281l.703-.992c.087-.122.268-.295.311-.44.077-.256-.073-.697-.09-.984-.018-.287-.01-.578-.054-.866-.062-.402-.3-.78-.333-1.178-.06-.74.075-1.332-.496-1.952-.55-.598-1.359-.741-2.131-.62-.39.061-1.955.312-1.327-.578.125-.174.342-.318.481-.484.122-.145.227-.411.37-.524.142-.113.797-.243.984-.185.188.057.383.328.546.448.3.226.651.377 1.022.438.64.094 1.98-.278 1.969-1.1-.002-.393-.368-.941-.512-1.31Z"/><path id="Vector_3" fill="#fff" d="M13.474 14.827c-.25-1.052-1.679-1.403-2.45-1.974-.442-.328-.837-.835-1.418-.876-.269-.019-.493.04-.759-.03-.244-.063-.435-.194-.695-.16-.485.064-.79.582-1.312.512-.495-.066-1.004-.645-1.117-1.116-.144-.605.335-.802.848-.856.215-.022.455-.047.66.032.272.1.4.366.643.5.456.25.548-.15.479-.555-.105-.606-.227-.854.314-1.271.375-.288.696-.496.636-1.013-.036-.304-.202-.441-.047-.743.118-.23.44-.438.651-.576.543-.354 2.327-.328 1.598-1.32-.214-.29-.609-.811-.984-.882-.469-.089-.677.434-1.004.665-.337.239-.994.51-1.332.14-.455-.496.301-.659.469-1.005.167-.347-.388-1.002-.685-1.168L6.57 4.698a1.946 1.946 0 0 0 .391 1.494c.278.358.72.472.74.96.02.47-.053.71-.36 1.04-.132.14-.225.34-.36.471-.166.16-.105.112-.363.156-.485.082-.899.208-1.368.338-.782.216-.854-1.062-1.21-1.563l-1.172.947c-.013.155.192.44.248.61.32.963.966 1.71 1.383 2.632.44.976 1.619.706 2.14 1.562.462.759-.032 1.72.314 2.515.251.577.844.703 1.252 1.125.418.426.41 1.01.473 1.564.072.652.188 1.299.35 1.935.056.22.108.51.258.692.103.125.457.232.314.273.2.033.556.22.722.083.22-.18.161-.734.199-.985.114-.745.487-1.474.99-2.032.498-.55 1.18-.923 1.6-1.547.409-.608.532-1.429.362-2.14Zm-1.565 1.234c-.281.502-.908.838-1.31 1.237-.11.108-.342.483-.479.402-.098-.058-.131-.544-.167-.656a2.867 2.867 0 0 0-1.018-1.404c-.146-.111-.51-.256-.594-.408-.094-.165-.01-.556-.006-.736.005-.262-.115-.699-.05-.937.075-.275-.07-.11.177-.164.13-.029.666.065.828.1.257.053.398.212.6.374.533.427 1.12.758 1.716 1.085.462.256.598.58.303 1.107Z"/><path id="Vector_4" fill="#fff" d="M8.647 3.145c.222.217.43.474.762.495.314.022.61-.148.883.065.304.235.523.531.926.604.39.071.803-.157.9-.556.093-.38-.109-.793-.12-1.175 0-.053.028-.288-.009-.328-.027-.03-.254.004-.289.005a9.708 9.708 0 0 0-3.44.74c.114.078.257.11.387.15Z"/><path id="Vector_5" fill="#fff" d="M16.706 5.778c.398 0 .802-.178.674-.638-.108-.386-.292-.804-.739-.596-.285.132-.688.468-.721.802-.038.379.52.432.786.432Z"/><path id="Vector_6" fill="#fff" d="M16.389 7.793c.406.243 1.009.128 1.315-.219.24-.272.38-.744.812-.743.19 0 .372.074.507.206.178.185.143.358.18.588.086.518.641.03.786-.17.094-.132.22-.326.178-.496-.04-.159-.225-.328-.307-.474-.241-.422-.44-.912-.8-1.253-.348-.328-.775-.29-1.104.05-.27.282-.584.504-.769.846-.13.24-.277.356-.54.418-.146.034-.312.047-.434.144-.34.268-.146.91.175 1.103Z"/></g></symbol><symbol xmlns="http://www.w3.org/2000/svg" id="hotel" fill="none" viewBox="0 0 24 24"><g id="IONIcon/H/home/sharp" clip-path="url(#a)"><path fill="#fff" d="M19.5 8.192V2.25h-3.75v2.74L12 1.5 0 12.751h3v9.75h6.75v-7.5h4.5v7.5H21v-9.75h3l-4.5-4.56Z"/></g><defs><clipPath id="a"><path fill="#fff" d="M0 0h24v24H0z"/></clipPath></defs></symbol><symbol xmlns="http://www.w3.org/2000/svg" id="map" fill="none" stroke-linecap="round" stroke-linejoin="round" stroke-width="1.5" viewBox="0 0 24 24"><g id="IONIcon/L/location/outline"><path d="M12 2.25c-3.727 0-6.75 2.877-6.75 6.422 0 4.078 4.5 10.54 6.152 12.773a.74.74 0 0 0 1.196 0c1.652-2.232 6.152-8.692 6.152-12.773 0-3.545-3.023-6.422-6.75-6.422Z"/><path d="M12 11.25a2.25 2.25 0 1 0 0-4.5 2.25 2.25 0 0 0 0 4.5Z"/></g></symbol></svg>