<svg width="32" height="46" viewBox="0 0 32 46" fill="none" xmlns="http://www.w3.org/2000/svg">
    <mask id="path-1-outside-1_2430_55613" maskUnits="userSpaceOnUse" x="0" y="0" width="32"
        height="46" fill="black">
        <rect fill="white" width="32" height="46" />
        <path fill-rule="evenodd" clip-rule="evenodd"
            d="M22.5132 29.516C27.5353 27.0914 31 21.9503 31 16C31 7.71573 24.2843 1 16 1C7.71573 1 1 7.71573 1 16C1 21.9065 4.4139 27.0157 9.37616 29.462L15.0368 43.665C15.3716 44.5052 16.5613 44.5045 16.8951 43.6638L22.5132 29.516Z" />
    </mask>
    <path fill-rule="evenodd" clip-rule="evenodd"
        d="M22.5132 29.516C27.5353 27.0914 31 21.9503 31 16C31 7.71573 24.2843 1 16 1C7.71573 1 1 7.71573 1 16C1 21.9065 4.4139 27.0157 9.37616 29.462L15.0368 43.665C15.3716 44.5052 16.5613 44.5045 16.8951 43.6638L22.5132 29.516Z"
        fill="#0f8a42" />
    <path
        d="M22.5132 29.516L22.0785 28.6154L21.7276 28.7848L21.5838 29.1469L22.5132 29.516ZM9.37616 29.462L10.3051 29.0918L10.1629 28.7349L9.81833 28.5651L9.37616 29.462ZM15.0368 43.665L15.9657 43.2947L15.9657 43.2947L15.0368 43.665ZM16.8951 43.6638L17.8245 44.0329L16.8951 43.6638ZM30 16C30 21.5522 26.7681 26.3514 22.0785 28.6154L22.948 30.4165C28.3025 27.8315 32 22.3485 32 16H30ZM16 2C23.732 2 30 8.26801 30 16H32C32 7.16344 24.8366 0 16 0V2ZM2 16C2 8.26801 8.26801 2 16 2V0C7.16344 0 0 7.16344 0 16H2ZM9.81833 28.5651C5.18448 26.2807 2 21.5113 2 16H0C0 22.3018 3.64333 27.7508 8.93399 30.3589L9.81833 28.5651ZM8.44722 29.8322L14.1078 44.0352L15.9657 43.2947L10.3051 29.0918L8.44722 29.8322ZM14.1078 44.0352C14.7776 45.7157 17.1568 45.7142 17.8245 44.0329L15.9657 43.2947L14.1078 44.0352ZM17.8245 44.0329L23.4426 29.885L21.5838 29.1469L15.9657 43.2947L17.8245 44.0329Z"
        fill="white" fill-opacity="0.8" mask="url(#path-1-outside-1_2430_55613)" />
    <g clip-path="url(#clip0_2430_55613)">
        <path fill-rule="evenodd" clip-rule="evenodd"
            d="M20.0869 9.01478C20.44 9.07871 20.6917 9.3374 20.6917 9.63642V22.3636C20.6917 22.715 20.3473 22.9999 19.9225 22.9999C19.4976 22.9999 19.1532 22.715 19.1532 22.3636V18.4945H18.2302C17.8053 18.4945 17.4609 18.2096 17.4609 17.8582V13.6073C17.4609 12.9049 17.6386 12.2297 17.9914 11.5876L17.9928 11.5851L19.2236 9.37059C19.3746 9.09891 19.7338 8.95084 20.0869 9.01478Z"
            fill="white" />
        <path fill-rule="evenodd" clip-rule="evenodd"
            d="M13.6908 14.3846C13.9882 14.3846 14.2293 14.6609 14.2293 15.0018V22.3828C14.2293 22.7237 13.9882 23 13.6908 23C13.3934 23 13.1523 22.7237 13.1523 22.3828V15.0018C13.1523 14.6609 13.3934 14.3846 13.6908 14.3846Z"
            fill="white" />
        <path fill-rule="evenodd" clip-rule="evenodd"
            d="M11.6535 9.00024C12.0144 9.00024 12.3069 9.30285 12.3069 9.67613V13.2719C12.3069 13.7367 12.6678 14.11 13.1172 14.11H14.2673C14.7168 14.11 15.0777 13.7367 15.0777 13.2719V9.67613C15.0777 9.30285 15.3702 9.00024 15.7311 9.00024C16.092 9.00024 16.3846 9.30285 16.3846 9.67613V13.2719C16.3846 14.4833 15.4386 15.4618 14.2673 15.4618H13.1172C11.946 15.4618 11 14.4833 11 13.2719V9.67613C11 9.30285 11.2926 9.00024 11.6535 9.00024Z"
            fill="white" />
        <path fill-rule="evenodd" clip-rule="evenodd"
            d="M13.6908 9C13.9882 9 14.2293 9.26204 14.2293 9.58528V13.7993C14.2293 14.1226 13.9882 14.3846 13.6908 14.3846C13.3934 14.3846 13.1523 14.1226 13.1523 13.7993V9.58528C13.1523 9.26204 13.3934 9 13.6908 9Z"
            fill="white" />
    </g>
    <defs>
        <clipPath id="clip0_2430_55613">
            <rect width="14" height="14" fill="white" transform="translate(9 9)" />
        </clipPath>
    </defs>
</svg>