<svg width="32" height="46" viewBox="0 0 32 46" fill="none" xmlns="http://www.w3.org/2000/svg">
    <mask id="path-1-outside-1_2430_55620" maskUnits="userSpaceOnUse" x="0" y="0" width="32"
        height="46" fill="black">
        <rect fill="white" width="32" height="46" />
        <path fill-rule="evenodd" clip-rule="evenodd"
            d="M22.5132 29.516C27.5353 27.0914 31 21.9503 31 16C31 7.71573 24.2843 1 16 1C7.71573 1 1 7.71573 1 16C1 21.9065 4.4139 27.0157 9.37616 29.462L15.0368 43.665C15.3716 44.5052 16.5613 44.5045 16.8951 43.6638L22.5132 29.516Z" />
    </mask>
    <path fill-rule="evenodd" clip-rule="evenodd"
        d="M22.5132 29.516C27.5353 27.0914 31 21.9503 31 16C31 7.71573 24.2843 1 16 1C7.71573 1 1 7.71573 1 16C1 21.9065 4.4139 27.0157 9.37616 29.462L15.0368 43.665C15.3716 44.5052 16.5613 44.5045 16.8951 43.6638L22.5132 29.516Z"
        fill="#0f8a42" />
    <path
        d="M22.5132 29.516L22.0785 28.6154L21.7276 28.7848L21.5838 29.1469L22.5132 29.516ZM9.37616 29.462L10.3051 29.0918L10.1629 28.7349L9.81833 28.5651L9.37616 29.462ZM15.0368 43.665L15.9657 43.2947L15.9657 43.2947L15.0368 43.665ZM16.8951 43.6638L17.8245 44.0329L16.8951 43.6638ZM30 16C30 21.5522 26.7681 26.3514 22.0785 28.6154L22.948 30.4165C28.3025 27.8315 32 22.3485 32 16H30ZM16 2C23.732 2 30 8.26801 30 16H32C32 7.16344 24.8366 0 16 0V2ZM2 16C2 8.26801 8.26801 2 16 2V0C7.16344 0 0 7.16344 0 16H2ZM9.81833 28.5651C5.18448 26.2807 2 21.5113 2 16H0C0 22.3018 3.64333 27.7508 8.93399 30.3589L9.81833 28.5651ZM8.44722 29.8322L14.1078 44.0352L15.9657 43.2947L10.3051 29.0918L8.44722 29.8322ZM14.1078 44.0352C14.7776 45.7157 17.1568 45.7142 17.8245 44.0329L15.9657 43.2947L14.1078 44.0352ZM17.8245 44.0329L23.4426 29.885L21.5838 29.1469L15.9657 43.2947L17.8245 44.0329Z"
        fill="white" fill-opacity="0.8" mask="url(#path-1-outside-1_2430_55620)" />
    <path fill-rule="evenodd" clip-rule="evenodd"
        d="M10.5557 12.7778C10.5557 12.3483 10.2074 12 9.77785 12C9.34826 12 9 12.3483 9 12.7778V19.9652C9 20.3948 9.34826 20.743 9.77785 20.743C10.2074 20.743 10.5557 20.3948 10.5557 19.9652V19.2184H14.8128C14.8142 19.2184 14.8156 19.2184 14.817 19.2184H21.4443V19.9652C21.4443 20.3948 21.7926 20.743 22.2222 20.743C22.6517 20.743 23 20.3948 23 19.9652V16.4804C23 16.1431 22.7826 15.8443 22.4618 15.7404L15.9278 13.6246C15.7184 13.5568 15.49 13.5809 15.2993 13.691C15.1087 13.8011 14.9736 13.9868 14.9275 14.2021L14.1879 17.6627H10.5557V12.7778Z"
        fill="white" />
    <path
        d="M12.6371 16.885C13.3245 16.885 13.8817 16.3278 13.8817 15.6404C13.8817 14.9531 13.3245 14.3959 12.6371 14.3959C11.9498 14.3959 11.3926 14.9531 11.3926 15.6404C11.3926 16.3278 11.9498 16.885 12.6371 16.885Z"
        fill="white" />
</svg>